<?xml version="1.0" encoding="UTF-8"?>
<!DOCTYPE svg PUBLIC "-//W3C//DTD SVG 1.1//EN" "http://www.w3.org/Graphics/SVG/1.1/DTD/svg11.dtd">
<!-- Creator: CorelDRAW 2019 (64-Bit) -->
<svg xmlns="http://www.w3.org/2000/svg" xml:space="preserve" width="3401px" height="3401px" version="1.1" style="shape-rendering:geometricPrecision; text-rendering:geometricPrecision; image-rendering:optimizeQuality; fill-rule:evenodd; clip-rule:evenodd"
viewBox="0 0 340100000 340100000"
 xmlns:xlink="http://www.w3.org/1999/xlink"
 xmlns:xodm="http://www.corel.com/coreldraw/odm/2003">
 <defs>
  <style type="text/css">
   <![CDATA[
    .str1 {stroke:#EE8033;stroke-width:3000000;stroke-miterlimit:22.9256}
    .str2 {stroke:#EE8033;stroke-width:2000000;stroke-linejoin:round;stroke-miterlimit:22.9256}
    .str0 {stroke:#EE8033;stroke-width:3000000;stroke-linejoin:round;stroke-miterlimit:22.9256}
    .fil1 {fill:none}
    .fil3 {fill:#EE8033}
    .fil4 {fill:#F9E641}
    .fil2 {fill:#EE8033;fill-rule:nonzero}
    .fil0 {fill:url(#id0)}
   ]]>
  </style>
  <radialGradient id="id0" gradientUnits="userSpaceOnUse" gradientTransform="matrix(1 -0 -0 1 -11 -11)" cx="170000000" cy="170100000" r="153250000" fx="170000000" fy="170100000">
   <stop offset="0" style="stop-opacity:1; stop-color:#FF9900"/>
   <stop offset="0.580392" style="stop-opacity:1; stop-color:#F9E641"/>
   <stop offset="0.839216" style="stop-opacity:1; stop-color:#FCD323"/>
   <stop offset="0.0705882" style="stop-opacity:1; stop-color:#FCC021"/>
   <stop offset="1" style="stop-opacity:1; stop-color:#F9E641"/>
  </radialGradient>
 </defs>
 <g id="Слой_x0020_1">
  <metadata id="CorelCorpID_0Corel-Layer"/>
  <circle class="fil0" cx="170000000" cy="170100000" r="153897000"/>
  <circle class="fil1" cx="170000000" cy="170100000" r="100050000"/>
  <path class="fil2" d="M60869000 142175000l-611000 3344000 12527000 2285000 -82000 439000 -1694000 1008000 -3272000 -595000 2525000 5318000 -1465000 856000 -2429000 -5512000c-533000,1305000 -1109000,2338000 -1725000,3097000 -617000,759000 -1191000,1243000 -1726000,1452000 -535000,212000 -1192000,245000 -1967000,102000l-2157000 -390000 -302000 1649000 -1565000 -286000 2381000 -13054000 1562000 287000zm5253000 6187000l-6177000 -1125000 -847000 4647000 1982000 359000c676000,124000 1214000,152000 1611000,84000 402000,-68000 830000,-250000 1289000,-551000 463000,-297000 895000,-766000 1301000,-1407000 410000,-637000 691000,-1304000 841000,-2007000z"/>
  <path id="1" class="fil2" d="M62299000 132384000l1479000 572000 -1223000 3158000 11841000 4572000 -183000 471000 -1786000 653000 -10504000 -4056000 -897000 2322000 -1479000 -572000 1036000 -2679000c-1142000,533000 -2207000,611000 -3195000,230000 -1169000,-453000 -1826000,-1402000 -1980000,-2852000 -117000,-1145000 76000,-2361000 573000,-3649000 781000,-2023000 2005000,-3676000 3667000,-4954000 1666000,-1278000 3771000,-2182000 6314000,-2708000l-273000 709000c-2079000,724000 -3797000,1690000 -5162000,2897000 -1365000,1207000 -2373000,2651000 -3023000,4334000 -494000,1272000 -650000,2305000 -475000,3101000 179000,793000 684000,1354000 1515000,1676000 748000,288000 1558000,350000 2435000,186000l1320000 -3411000z"/>
  <path id="2" class="fil2" d="M67177000 119890000l1480000 572000 -1223000 3172000 11868000 4584000 -191000 490000 -1778000 630000 -6580000 -2542000 -998000 2587000c-430000,1115000 -545000,1960000 -345000,2539000 199000,582000 623000,995000 1267000,1246000 690000,265000 1545000,277000 2567000,28000 1021000,-249000 2430000,-754000 4219000,-1518000l195000 484000c-2405000,1093000 -4168000,1738000 -5289000,1935000 -1125000,196000 -2146000,121000 -3061000,-234000 -778000,-303000 -1321000,-764000 -1624000,-1385000 -303000,-620000 -249000,-1464000 166000,-2537000l1432000 -3713000 -2480000 -957000 -3091000 7997000 -1479000 -572000 4945000 -12806000z"/>
  <path id="3" class="fil2" d="M74860000 106885000l1377000 789000 -1691000 2947000 11042000 6321000 -217000 379000 -1947000 408000 -3908000 -2239000c143000,726000 18000,1428000 -370000,2105000 -332000,585000 -835000,1067000 -1499000,1450000 -667000,384000 -1351000,645000 -2053000,787000 -707000,143000 -1394000,22000 -2067000,-367000l-3047000 -1744000 -830000 1457000 -1381000 -788000 6591000 -11505000zm-1186000 5262000l-2319000 4053000 3782000 2166000c848000,484000 1471000,632000 1868000,440000 397000,-196000 717000,-505000 965000,-930000 434000,-764000 409000,-1868000 -86000,-3319000l-4210000 -2410000z"/>
  <path id="4" class="fil2" d="M85869000 92826000l1242000 985000 -2101000 2656000 13636000 10794000 -334000 420000 -1921000 32000 -1680000 -1330000c-51000,1635000 -360000,2814000 -935000,3538000 -517000,652000 -1259000,1024000 -2230000,1105000 -970000,85000 -1710000,-77000 -2225000,-483000 -263000,-207000 -548000,-582000 -852000,-1118000l-1959000 2469000 -1645000 -474000 6244000 -7889000 -2141000 -1694000c-47000,1635000 -360000,2814000 -931000,3538000 -517000,656000 -1263000,1024000 -2230000,1109000 -970000,85000 -1711000,-77000 -2225000,-484000 -263000,-210000 -549000,-582000 -856000,-1117000l-1955000 2469000 -1649000 -474000 6244000 -7889000 -1444000 -1146000 -6777000 8563000 -1246000 -985000 9970000 -12595000zm743000 7148000l-1866000 2355000c-422000,534000 -596000,1133000 -529000,1802000 71000,668000 310000,1162000 722000,1487000 286000,227000 610000,315000 977000,267000 367000,-45000 677000,-231000 929000,-552000 836000,-1059000 849000,-2774000 38000,-5144000l-271000 -215000zm5740000 4543000l-1867000 2358000c-418000,530000 -595000,1129000 -525000,1798000 71000,669000 310000,1166000 718000,1488000 286000,226000 614000,318000 977000,270000 367000,-49000 677000,-235000 930000,-555000 839000,-1056000 852000,-2771000 37000,-5145000l-270000 -214000z"/>
  <polygon id="5" class="fil2" points="79212000,94879000 78969000,92789000 81059000,92547000 81302000,94637000 "/>
  <path id="6" class="fil2" d="M96287000 83046000l1085000 1157000 -2336000 2200000 2707000 2554000 -2471000 2321000c-895000,843000 -1427000,1626000 -1592000,2347000 -165000,724000 37000,1387000 602000,1990000 425000,449000 1000000,686000 1722000,710000 721000,24000 1365000,-232000 1930000,-763000 326000,-307000 557000,-631000 693000,-977000 -267000,-55000 -537000,-225000 -806000,-513000 -216000,-231000 -302000,-545000 -261000,-949000 44000,-401000 222000,-751000 545000,-1055000 461000,-432000 967000,-658000 1513000,-670000 546000,-12000 1003000,178000 1371000,570000 345000,369000 418000,1000000 210000,1888000l3418000 565000 -690000 1019000 -3278000 -499000c-173000,270000 -377000,510000 -604000,726000 -665000,622000 -1511000,1002000 -2547000,1141000 -1032000,135000 -1987000,56000 -2863000,-240000 -877000,-296000 -1543000,-686000 -1998000,-1170000 -634000,-672000 -858000,-1415000 -673000,-2223000 188000,-813000 870000,-1775000 2058000,-2886000l1448000 -1366000 -1464000 -1556000 -5760000 5417000 -1089000 -1156000 9130000 -8582000zm4237000 11807000l-1007000 5184000 -1687000 -179000 1446000 -6335000 1248000 1330000z"/>
  <path id="7" class="fil2" d="M111138000 71974000l930000 1288000 -2747000 1983000 7420000 10278000 -384000 274000 -1863000 -418000 -4341000 -6015000c-242000,311000 -437000,778000 -586000,1395000 -148000,616000 -254000,1781000 -314000,3489000l-1805000 -281000c-15000,-389000 12000,-940000 72000,-1658000 -1002000,-138000 -1799000,5000 -2392000,434000 -395000,281000 -644000,707000 -755000,1273000 -110000,570000 -11000,1070000 306000,1507000 339000,471000 838000,834000 1497000,1089000 659000,259000 2155000,561000 4487000,911000l-107000 505000 -4436000 -721000c-922000,-142000 -1618000,-335000 -2086000,-576000 -468000,-242000 -821000,-525000 -1056000,-852000 -425000,-585000 -582000,-1211000 -480000,-1876000 106000,-665000 438000,-1199000 1001000,-1604000 904000,-652000 2262000,-853000 4082000,-599000 279000,-1575000 905000,-2710000 1874000,-3409000l-1540000 -2131000 -8739000 6304000 -926000 -1288000 12888000 -9302000z"/>
  <path id="8" class="fil2" d="M98980000 75293000l-1693000 -1122000 935000 -675000c532000,-386000 1103000,-661000 1713000,-830000 610000,-169000 1236000,-223000 1882000,-163000 645000,57000 1598000,290000 2858000,698000l3702000 1191000 -562000 405000 -2975000 -887000c-976000,-291000 -1813000,-411000 -2512000,-356000 -702000,55000 -1407000,339000 -2113000,848000l-1235000 891000z"/>
  <path id="9" class="fil2" d="M128781000 63546000l662000 1444000 -3090000 1419000 5291000 11539000 -366000 170000 -1865000 -822000 -363000 -792000c-620000,1081000 -1380000,1826000 -2283000,2240000 -971000,444000 -1940000,645000 -2907000,597000 -970000,-48000 -2026000,-336000 -3167000,-857000 -1142000,-524000 -2011000,-985000 -2606000,-1383000 -594000,-401000 -1044000,-941000 -1353000,-1619000 -310000,-671000 -251000,-1103000 176000,-1300000 183000,-85000 431000,-86000 737000,-4000 344000,86000 596000,115000 753000,83000l-1491000 -3524000 -3009000 1381000 -662000 -1444000 15543000 -7128000zm-4024000 3594000l-6568000 3009000 1311000 3426000c155000,412000 272000,862000 343000,1354000 76000,493000 46000,1329000 -84000,2514000 1153000,650000 2141000,1031000 2962000,1137000 826000,106000 1654000,-33000 2488000,-416000 1139000,-522000 2129000,-1704000 2974000,-3550000l-684000 -1497000c-736000,1479000 -1423000,2365000 -2067000,2659000 -674000,309000 -1476000,268000 -2418000,-116000 -938000,-384000 -1564000,-916000 -1869000,-1586000 -352000,-766000 -333000,-1507000 56000,-2223000 389000,-713000 1013000,-1270000 1866000,-1661000 815000,-371000 1870000,-316000 3163000,161000l-1473000 -3211000zm1802000 3935000l-112000 -244000c-1024000,18000 -1829000,160000 -2411000,430000 -629000,287000 -1153000,744000 -1570000,1365000 -417000,622000 -513000,1172000 -292000,1652000 154000,339000 430000,563000 828000,668000 394000,104000 784000,72000 1165000,-102000 541000,-248000 1145000,-790000 1808000,-1623000 664000,-836000 859000,-1551000 584000,-2146000z"/>
  <path id="10" class="fil2" d="M116213000 64425000l-1445000 -1432000 1048000 -479000c598000,-275000 1212000,-435000 1842000,-481000 630000,-49000 1257000,20000 1877000,203000 619000,184000 1508000,595000 2665000,1238000l3399000 1887000 -629000 290000 -2743000 -1451000c-900000,-473000 -1696000,-751000 -2396000,-835000 -695000,-80000 -1443000,62000 -2236000,426000l-1382000 634000z"/>
  <path id="11" class="fil2" d="M143902000 59070000l431000 1529000 -3276000 919000 3425000 12224000 -451000 129000 -1624000 -1032000 -1003000 -3578000c-992000,1193000 -1961000,1920000 -2908000,2185000 -876000,246000 -1861000,56000 -2955000,-569000 -1095000,-629000 -1746000,-1318000 -1958000,-2071000 -140000,-497000 -78000,-1020000 187000,-1577000 262000,-553000 740000,-1060000 1437000,-1524000 696000,-461000 1308000,-765000 1839000,-916000 956000,-269000 2051000,-56000 3283000,639000l-965000 -3437000 -8401000 2354000 -428000 -1529000 13367000 -3746000zm-3217000 7627000l-151000 -536000c-744000,-280000 -1424000,-335000 -2043000,-161000 -849000,238000 -1679000,721000 -2487000,1448000 -811000,724000 -1138000,1380000 -971000,1961000 128000,459000 391000,799000 792000,1014000 404000,219000 816000,266000 1241000,149000 485000,-137000 1224000,-719000 2208000,-1740000 980000,-1025000 1452000,-1734000 1411000,-2135000z"/>
  <path id="12" class="fil2" d="M166282000 56020000l132000 1580000 -3390000 277000 1027000 12655000 -469000 41000 -1398000 -1324000 -302000 -3703000c-1197000,981000 -2290000,1511000 -3271000,1589000 -905000,75000 -1835000,-298000 -2791000,-1125000 -953000,-823000 -1462000,-1626000 -1524000,-2404000 -41000,-516000 116000,-1017000 484000,-1512000 364000,-491000 930000,-899000 1700000,-1221000 773000,-322000 1433000,-505000 1983000,-547000 988000,-82000 2022000,335000 3097000,1249000l-289000 -3554000 -8696000 706000 -128000 -1584000 13835000 -1123000zm-4615000 6872000l-45000 -557000c-679000,-416000 -1337000,-599000 -1974000,-546000 -878000,71000 -1785000,386000 -2718000,945000 -936000,560000 -1379000,1139000 -1330000,1742000 37000,474000 235000,858000 588000,1146000 353000,289000 747000,416000 1186000,383000 508000,-42000 1338000,-471000 2502000,-1287000 1160000,-817000 1756000,-1424000 1791000,-1826000z"/>
  <path id="13" class="fil2" d="M186022000 57163000l-756000 -62000c-1280000,-1788000 -2693000,-3167000 -4234000,-4139000 -1540000,-968000 -3210000,-1529000 -5008000,-1677000 -1359000,-111000 -2395000,28000 -3108000,420000 -713000,393000 -1106000,1036000 -1180000,1926000 -66000,798000 101000,1593000 508000,2386000l3642000 305000 -132000 1581000 -3374000 -281000 -1051000 12644000 -500000 -41000 -1129000 -1531000 931000 -11216000 -2485000 -206000 132000 -1581000 2863000 236000c-835000,-945000 -1207000,-1944000 -1120000,-2998000 103000,-1248000 830000,-2149000 2174000,-2702000 1069000,-433000 2292000,-594000 3666000,-482000 1501000,127000 2889000,499000 4168000,1121000 1280000,623000 2443000,1493000 3495000,2611000 8000,-168000 17000,-340000 33000,-511000 62000,-772000 364000,-1362000 897000,-1767000 510000,-391000 1157000,-555000 1936000,-489000 744000,62000 1441000,357000 2091000,880000 437000,350000 957000,915000 1567000,1690000l-414000 368000c-1010000,-980000 -1874000,-1501000 -2596000,-1559000 -565000,-49000 -1066000,101000 -1504000,446000 -441000,344000 -684000,801000 -730000,1363000 -37000,408000 64000,901000 293000,1472000 317000,567000 627000,1165000 925000,1793000z"/>
  <path id="14" class="fil2" d="M190502000 57483000l-132000 1584000 -3375000 -280000 -1055000 12709000 -447000 -37000 -1178000 -1600000 182000 -2184000c-1113000,776000 -1983000,1260000 -2618000,1459000 -631000,198000 -1258000,271000 -1873000,221000 -989000,-82000 -1796000,-488000 -2418000,-1218000 -626000,-725000 -896000,-1575000 -817000,-2541000 62000,-733000 272000,-1358000 634000,-1875000 362000,-517000 876000,-927000 1543000,-1228000 -774000,-246000 -1417000,-696000 -1929000,-1356000 -515000,-661000 -740000,-1353000 -678000,-2082000 66000,-787000 383000,-1442000 951000,-1973000 573000,-527000 1243000,-760000 2006000,-698000 794000,66000 1419000,375000 1870000,920000 451000,545000 646000,1211000 580000,2001000 -54000,630000 -305000,1110000 -754000,1443000 -449000,334000 -988000,475000 -1610000,422000 -692000,-58000 -1225000,-156000 -1603000,-300000 450000,702000 1108000,1156000 1974000,1364000 302000,-59000 616000,-73000 936000,-48000 435000,37000 851000,143000 1243000,317000 397000,175000 936000,701000 1626000,1572000 -519000,-125000 -1129000,-217000 -1828000,-274000 -1329000,-112000 -2354000,115000 -3071000,680000 -722000,565000 -1111000,1189000 -1165000,1872000 -41000,489000 82000,898000 374000,1225000 289000,326000 715000,516000 1273000,561000 836000,70000 1961000,-259000 3371000,-988000 1410000,-728000 2172000,-1786000 2288000,-3175000l445000 -5337000 -1673000 -136000 -982000 -1675000 7910000 655000zm-12813000 2898000c943000,78000 1723000,-47000 2347000,-380000 621000,-328000 956000,-792000 1005000,-1395000 29000,-306000 -53000,-562000 -243000,-773000 -186000,-208000 -441000,-328000 -762000,-353000 -653000,-57000 -1192000,150000 -1619000,617000 -427000,463000 -675000,1077000 -737000,1833000 -8000,95000 -5000,248000 9000,451000z"/>
  <path id="15" class="fil2" d="M190252000 53142000l-415000 372000c-1010000,-984000 -1874000,-1501000 -2596000,-1563000 -584000,-49000 -1093000,108000 -1523000,468000 -430000,361000 -669000,810000 -714000,1344000 -33000,401000 132000,899000 487000,1497000 359000,598000 909000,1293000 1653000,2080000l-760000 -66000c-931000,-773000 -1614000,-1526000 -2053000,-2266000 -442000,-740000 -632000,-1466000 -571000,-2180000 58000,-710000 337000,-1285000 832000,-1714000 495000,-429000 1161000,-612000 2001000,-542000 603000,54000 1171000,252000 1711000,599000 540000,347000 1190000,1004000 1948000,1971000z"/>
  <path id="16" class="fil2" d="M199275000 69634000c-930000,315000 -1751000,350000 -2466000,113000 -1148000,-380000 -2088000,-1158000 -2820000,-2334000 -732000,-1176000 -982000,-2122000 -741000,-2834000l1575000 -4748000 -1699000 -564000 504000 -1508000 8640000 2876000 -500000 1508000 -4948000 -1647000 2952000 7642000 -497000 1496000zm1000 -1390000l-2913000 -7474000 -1635000 4913000c-240000,730000 -249000,1334000 -17000,1810000 232000,476000 700000,833000 1408000,1070000 849000,282000 1903000,177000 3157000,-319000z"/>
  <path id="17" class="fil2" d="M217319000 65687000l-500000 1508000 -3229000 -1075000 -4015000 12083000 -394000 -131000 -774000 -1860000 3538000 -10637000 -2939000 -978000c-233000,746000 -533000,1760000 -904000,3034000 -337000,1186000 -552000,1913000 -642000,2181000 -289000,872000 -733000,1501000 -1330000,1893000 -598000,389000 -1182000,492000 -1748000,304000 -608000,-203000 -1265000,-967000 -1975000,-2297000 -710000,-1329000 -990000,-2225000 -836000,-2684000l1470000 -4416000 -1596000 -530000 504000 -1507000 15370000 5112000zm-9809000 -1590000l-2805000 -932000 -1812000 5449000c-124000,375000 -106000,718000 48000,1035000 154000,312000 404000,528000 752000,645000 394000,131000 803000,118000 1222000,-41000 419000,-163000 693000,-435000 821000,-826000l1774000 -5330000z"/>
  <path id="18" class="fil2" d="M207563000 78765000l122000 -1608000c241000,29000 570000,115000 987000,254000 956000,320000 1658000,854000 2113000,1612000 451000,754000 531000,1571000 238000,2451000 -286000,861000 -817000,1437000 -1587000,1727000 -774000,291000 -1656000,269000 -2655000,-62000 -1056000,-353000 -1996000,-1074000 -2819000,-2166000 -823000,-1088000 -1438000,-2467000 -1844000,-4127000l666000 222000c369000,1240000 925000,2264000 1678000,3078000 753000,809000 1699000,1407000 2847000,1787000 877000,293000 1576000,385000 2095000,279000 519000,-106000 861000,-406000 1026000,-903000 132000,-402000 7000,-833000 -373000,-1285000 -385000,-453000 -921000,-793000 -1606000,-1023000 -360000,-120000 -658000,-199000 -888000,-236000z"/>
  <path id="19" class="fil2" d="M234907000 75921000l-662000 -377000c-401000,-2161000 -1095000,-4008000 -2080000,-5538000 -988000,-1534000 -2266000,-2746000 -3829000,-3641000 -1182000,-678000 -2179000,-989000 -2993000,-938000 -813000,55000 -1443000,472000 -1888000,1249000 -396000,692000 -578000,1482000 -550000,2376000l3174000 1816000 -788000 1377000 -2941000 -1683000 -6305000 11011000 -436000 -251000 -374000 -1863000 5594000 -9769000 -2164000 -1238000 788000 -1380000 2493000 1428000c-354000,-1206000 -272000,-2272000 258000,-3190000 620000,-1085000 1658000,-1595000 3114000,-1525000 1149000,59000 2326000,431000 3523000,1116000 1304000,747000 2405000,1673000 3301000,2779000 896000,1106000 1582000,2388000 2062000,3846000 80000,-153000 160000,-302000 244000,-451000 388000,-673000 907000,-1078000 1563000,-1217000 627000,-139000 1280000,-14000 1960000,374000 647000,370000 1156000,930000 1524000,1682000 245000,504000 479000,1233000 702000,2195000l-530000 161000c-499000,-1316000 -1066000,-2156000 -1693000,-2514000 -489000,-281000 -1009000,-361000 -1551000,-234000 -546000,127000 -958000,434000 -1240000,927000 -205000,355000 -323000,841000 -360000,1456000 51000,649000 79000,1321000 84000,2016000z"/>
  <path id="20" class="fil2" d="M237837000 77616000l-788000 1376000 -2952000 -1687000 -6305000 11008000 -406000 -232000 -404000 -1879000 1843000 -3223000c-1543000,129000 -2739000,-49000 -3595000,-540000 -788000,-449000 -1343000,-1285000 -1662000,-2502000 -320000,-1218000 -287000,-2169000 102000,-2846000 255000,-447000 674000,-769000 1250000,-972000 581000,-200000 1280000,-217000 2094000,-42000 817000,170000 1463000,394000 1945000,668000 860000,492000 1473000,1419000 1846000,2781000l1770000 -3093000 -7566000 -4333000 788000 -1380000 12040000 6896000zm-7687000 3054000l274000 -486000c-322000,-725000 -762000,-1248000 -1317000,-1564000 -764000,-437000 -1689000,-692000 -2774000,-759000 -1085000,-66000 -1780000,160000 -2080000,684000 -236000,413000 -289000,841000 -162000,1276000 127000,439000 379000,767000 761000,988000 440000,251000 1369000,368000 2786000,350000 1420000,-14000 2256000,-180000 2512000,-489000z"/>
  <path id="21" class="fil2" d="M239381000 73685000l-530000 161000c-499000,-1317000 -1062000,-2156000 -1689000,-2514000 -512000,-293000 -1036000,-369000 -1578000,-223000 -546000,146000 -950000,449000 -1217000,915000 -198000,348000 -262000,872000 -192000,1563000 70000,695000 278000,1554000 616000,2581000l-661000 -377000c-514000,-1095000 -814000,-2069000 -899000,-2924000 -86000,-856000 50000,-1593000 404000,-2216000 354000,-620000 850000,-1022000 1480000,-1202000 630000,-177000 1314000,-60000 2044000,359000 524000,301000 956000,724000 1297000,1266000 341000,542000 648000,1412000 925000,2611000z"/>
  <path id="22" class="fil2" d="M242778000 90738000c-904000,-1011000 -1629000,-2087000 -2178000,-3222000l-4569000 -681000 -232000 -1709000 4019000 741000c-461000,-913000 -699000,-1710000 -718000,-2390000 -20000,-680000 183000,-1246000 607000,-1696000 376000,-403000 887000,-582000 1521000,-540000 638000,41000 1178000,271000 1616000,684000 653000,615000 1006000,1434000 1066000,2461000 60000,1023000 -187000,1831000 -740000,2415000 -535000,565000 -1206000,802000 -2016000,716000 344000,681000 915000,1510000 1719000,2483000 831000,1010000 1364000,1832000 1597000,2468000 233000,633000 360000,1331000 388000,2099000l4203000 -4454000 -4127000 -3892000 324000 -1878000 8620000 8130000 -1089000 1157000 -2475000 -2333000 -8718000 9238000 -342000 -323000 132000 -1968000 740000 -780000c-1533000,-234000 -2659000,-693000 -3373000,-1369000 -661000,-622000 -1007000,-1567000 -1035000,-2827000 -23000,-1260000 231000,-2175000 770000,-2744000 398000,-422000 962000,-647000 1691000,-667000 726000,-20000 1595000,272000 2599000,881000zm219000 -5173000c293000,-312000 428000,-660000 402000,-1053000 -25000,-394000 -199000,-740000 -518000,-1044000 -357000,-337000 -763000,-507000 -1218000,-511000 -455000,-1000 -851000,177000 -1188000,534000 -266000,281000 -405000,626000 -418000,1030000 -9000,405000 105000,875000 345000,1411000 1300000,210000 2167000,86000 2595000,-367000zm958000 9962000l383000 -407000c-146000,-782000 -452000,-1395000 -917000,-1835000 -642000,-603000 -1481000,-1068000 -2522000,-1386000 -1041000,-322000 -1770000,-263000 -2184000,178000 -330000,346000 -480000,748000 -458000,1203000 18000,458000 189000,835000 512000,1139000 368000,349000 1245000,679000 2626000,995000 1385000,316000 2237000,352000 2560000,113000z"/>
  <path id="23" class="fil2" d="M267552000 110457000l-1288000 930000 -1991000 -2759000 -10297000 7432000 -274000 -384000 407000 -1879000 3013000 -2176000c-1459000,-516000 -2480000,-1177000 -3055000,-1975000 -532000,-737000 -692000,-1729000 -480000,-2972000 209000,-1243000 634000,-2094000 1269000,-2549000 418000,-301000 933000,-423000 1540000,-371000 612000,57000 1255000,331000 1928000,827000 671000,491000 1172000,961000 1495000,1410000 579000,805000 759000,1904000 533000,3300000l2895000 -2088000 -5109000 -7078000 1288000 -926000 8126000 11258000zm-8272000 -395000l452000 -324000c6000,-798000 -178000,-1454000 -553000,-1974000 -513000,-715000 -1255000,-1328000 -2217000,-1837000 -959000,-512000 -1685000,-591000 -2175000,-236000 -388000,278000 -614000,646000 -680000,1097000 -65000,452000 33000,856000 288000,1213000 297000,410000 1095000,901000 2398000,1472000 1299000,571000 2129000,768000 2487000,589000z"/>
  <polygon id="24" class="fil2" points="267261000,103564000 269337000,103896000 269005000,105977000 266924000,105640000 "/>
  <path id="25" class="fil2" d="M272208000 119394000l-1443000 665000 -1412000 -3082000 -11539000 5291000 -213000 -457000 781000 -1739000 10240000 -4691000 -1040000 -2267000 1443000 -661000 1199000 2609000c414000,-1190000 1100000,-2003000 2064000,-2444000 1105000,-507000 2190000,-391000 3260000,348000 901000,621000 1621000,1522000 2162000,2703000 816000,1783000 1067000,3634000 746000,5561000 -317000,1927000 -1204000,3926000 -2659000,5996000l-317000 -693000c1002000,-1847000 1584000,-3592000 1750000,-5243000 167000,-1651000 -87000,-3207000 -752000,-4663000 -506000,-1097000 -1087000,-1827000 -1750000,-2190000 -663000,-359000 -1400000,-355000 -2212000,20000 -727000,333000 -1335000,871000 -1831000,1615000l1523000 3322000z"/>
  <path id="26" class="fil2" d="M277261000 130508000l-1444000 661000 -1338000 -2918000 -3282000 1749000 -1412000 -3078000c-514000,-1120000 -1088000,-1873000 -1720000,-2259000 -633000,-386000 -1324000,-409000 -2075000,-64000 -563000,259000 -969000,727000 -1221000,1404000 -252000,678000 -218000,1369000 107000,2074000 185000,404000 420000,727000 701000,970000 140000,-238000 387000,-438000 745000,-600000 285000,-132000 614000,-114000 982000,55000 367000,166000 644000,451000 826000,851000 263000,575000 316000,1125000 150000,1645000 -161000,521000 -487000,897000 -975000,1117000 -461000,213000 -1080000,79000 -1858000,-401000l-1625000 3057000 -743000 -974000 1519000 -2949000c-201000,-251000 -366000,-522000 -494000,-807000 -379000,-827000 -472000,-1751000 -272000,-2776000 201000,-1021000 582000,-1901000 1143000,-2638000 561000,-736000 1142000,-1244000 1744000,-1518000 842000,-387000 1614000,-361000 2323000,74000 709000,432000 1402000,1390000 2079000,2868000l827000 1810000 1943000 -890000 -3295000 -7188000 1444000 -662000 5221000 11387000z"/>
  <path id="27" class="fil2" d="M281440000 146253000l-1547000 355000 -760000 -3312000 -12402000 2837000 -118000 -511000 1123000 -1517000 6875000 -1577000 -619000 -2700000c-267000,-1165000 -645000,-1929000 -1134000,-2299000 -489000,-371000 -1073000,-478000 -1749000,-321000 -718000,164000 -1432000,634000 -2143000,1413000 -706000,775000 -1589000,1982000 -2647000,3617000l-432000 -291000c1379000,-2253000 2483000,-3773000 3301000,-4564000 821000,-794000 1711000,-1298000 2670000,-1520000 813000,-183000 1520000,-107000 2119000,237000 600000,348000 1028000,1077000 1284000,2197000l885000 3880000 2598000 -592000 -1917000 -8361000 1551000 -355000 3062000 13384000z"/>
  <polygon id="28" class="fil2" points="283098000,153387000 281551000,153743000 280795000,150439000 268389000,153280000 268298000,152875000 269512000,151221000 280402000,148728000 279844000,146298000 281395000,145943000 "/>
  <circle class="fil1" transform="matrix(0.999654 -0.0263075 0.0263075 0.999654 1.7E+08 1.701E+08)" r="117950000"/>
  <path class="fil2" d="M269583000 200471000l1539000 394000 843000 -3297000 12337000 3155000 124000 -485000 -1109000 -1581000 -4370000 -1118000 1139000 -4455000 1843000 471000c433000,111000 687000,27000 759000,-255000 70000,-274000 -295000,-1037000 -1096000,-2283000 -800000,-1249000 -1378000,-1917000 -1733000,-2008000 -226000,-58000 -381000,84000 -468000,424000l-398000 1558000 -5018000 -1283000 821000 -3208000 -1539000 -394000 -3674000 14365000zm8975000 -7778000l-1140000 4456000 -5017000 -1284000 1139000 -4455000 5018000 1283000zm-13957000 20740000l1464000 617000 1233000 -2929000 3778000 1892000 2413000 -5735000c171000,-405000 356000,-687000 549000,-842000 195000,-158000 400000,-192000 615000,-102000 261000,110000 520000,351000 779000,730000 257000,373000 511000,882000 760000,1521000 -852000,587000 -1499000,1396000 -1933000,2427000 -397000,944000 -402000,1911000 -17000,2906000 382000,994000 965000,1657000 1750000,1988000 570000,240000 1190000,314000 1859000,219000 674000,-94000 1400000,-352000 2187000,-775000l-670000 -1678000c-861000,570000 -1596000,957000 -2203000,1169000 -606000,209000 -1083000,241000 -1435000,93000 -405000,-171000 -668000,-472000 -789000,-904000 -125000,-430000 -73000,-909000 146000,-1430000 420000,-997000 1097000,-1818000 2037000,-2458000 937000,-642000 1837000,-781000 2703000,-417000 1000000,421000 1728000,1585000 2186000,3493000 232000,955000 360000,2029000 393000,3220000 34000,1191000 -31000,2497000 -190000,3918000l489000 49000 67000 -859000c230000,-2870000 78000,-5404000 -454000,-7596000 -267000,-1099000 -616000,-1983000 -1050000,-2655000 -433000,-675000 -958000,-1140000 -1567000,-1397000 -856000,-360000 -1870000,-223000 -3051000,407000 -815000,-1905000 -1598000,-3017000 -2348000,-3333000 -489000,-206000 -903000,-177000 -1246000,77000 -345000,257000 -686000,792000 -1031000,1613000l-1784000 4238000 -2422000 -1019000 3225000 -7664000 -1465000 -616000 -4978000 11832000zm-2837000 6742000l1465000 616000 1315000 -3126000 11737000 4939000 160000 -380000 -916000 -1840000 -10301000 -4335000 969000 -2302000 -1465000 -616000 -2964000 7044000zm-5122000 7609000l1360000 822000 2575000 -4259000c440000,579000 1024000,1088000 1743000,1523000 791000,478000 1641000,756000 2552000,829000 909000,76000 1874000,-51000 2892000,-377000 298000,993000 547000,2138000 749000,3443000 204000,1302000 357000,2760000 470000,4382000l503000 -35000c-83000,-1420000 -208000,-2755000 -379000,-4009000 -172000,-1251000 -384000,-2429000 -637000,-3523000 -516000,-2187000 -1072000,-3461000 -1667000,-3820000 -585000,-354000 -1117000,-139000 -1593000,648000 -227000,376000 -420000,880000 -573000,1510000 -760000,90000 -1407000,-29000 -1943000,-353000 -421000,-255000 -884000,-731000 -1386000,-1427000l2622000 -4338000 -1360000 -822000 -5928000 9806000zm-3786000 6262000l1360000 823000 1755000 -2903000 10897000 6588000 213000 -353000 -640000 -1953000 -9564000 -5782000 1293000 -2138000 -1360000 -822000 -3954000 6540000zm-7737000 8416000l1228000 1008000 1540000 -1874000 2712000 2228000c597000,489000 1192000,781000 1785000,877000 596000,99000 1173000,5000 1731000,-278000 558000,-288000 1284000,-829000 2182000,-1628000 1068000,-957000 1913000,-1504000 2537000,-1644000 627000,-138000 1203000,9000 1734000,446000 906000,744000 795000,1799000 -324000,3163000 -396000,481000 -1038000,981000 -1929000,1500000 -890000,525000 -1767000,906000 -2623000,1148000l392000 1731000c1669000,-473000 3049000,-1371000 4133000,-2691000 889000,-1083000 1397000,-2243000 1517000,-3479000 126000,-1236000 -253000,-2214000 -1129000,-2934000 -1175000,-964000 -2531000,-758000 -4066000,630000 141000,-714000 190000,-1405000 135000,-2078000 -52000,-671000 -153000,-1149000 -304000,-1441000 -149000,-295000 -388000,-575000 -710000,-840000l-2048000 -1682000 1413000 -1721000 -1228000 -1008000 -8678000 10567000zm7289000 574000l-3406000 -2798000 3267000 -3979000 139000 6777000zm505000 34000l-142000 -6863000 2415000 1983000c1163000,955000 1238000,2055000 220000,3295000 -671000,817000 -1506000,1347000 -2493000,1585000zm7502000 4816000l5802000 -1547000 -292000 -1673000 -6224000 1868000 -254000 310000 1706000 5078000 552000 -179000 -1290000 -3857000zm-18760000 7276000c849000,-197000 1676000,-635000 2491000,-1311000 620000,-514000 1211000,-1267000 1768000,-2265000 968000,438000 1781000,682000 2438000,727000 7000,1156000 0,2213000 -22000,3174000 -24000,958000 -66000,1816000 -126000,2576000l491000 84000c107000,-1577000 174000,-2938000 203000,-4069000 27000,-1134000 20000,-2046000 -27000,-2732000 -99000,-1381000 -355000,-2325000 -770000,-2824000 -241000,-292000 -492000,-456000 -749000,-491000 -257000,-35000 -521000,60000 -791000,284000 -315000,261000 -593000,661000 -841000,1194000 -600000,-173000 -1186000,-604000 -1764000,-1301000 -351000,-423000 -606000,-976000 -765000,-1658000l2775000 -2302000 -1014000 -1223000 -7691000 6378000 1015000 1223000 3813000 -3162000c399000,889000 785000,1557000 1155000,2004000 378000,456000 913000,945000 1613000,1471000 -596000,976000 -1156000,1683000 -1676000,2114000 -726000,603000 -1604000,854000 -2647000,757000l1121000 1352000zm-14981000 3021000l1015000 1223000 2619000 -2172000 8129000 9802000 180000 -149000 200000 -2146000 -2058000 -2481000c866000,-9000 1689000,-339000 2477000,-992000 567000,-471000 986000,-1151000 1251000,-2040000 264000,-889000 433000,-2320000 501000,-4296000l-144000 -174000c-963000,665000 -1828000,985000 -2597000,973000 -769000,-17000 -1438000,-370000 -2011000,-1061000 -451000,-544000 -639000,-1177000 -554000,-1893000l2844000 -2358000 -1015000 -1223000 -10837000 8987000zm4987000 -2071000l3504000 -2906000c-355000,1242000 -191000,2277000 497000,3106000 561000,676000 1236000,1059000 2022000,1146000 786000,93000 1682000,-114000 2689000,-622000 -99000,712000 -249000,1308000 -460000,1790000 -205000,483000 -464000,852000 -782000,1116000 -573000,475000 -1231000,753000 -1971000,836000 -743000,79000 -1279000,43000 -1608000,-121000 -329000,-163000 -802000,-620000 -1421000,-1366000l-2470000 -2979000zm-17800000 8304000l693000 1430000 4479000 -2169000c54000,725000 267000,1471000 633000,2227000 402000,832000 964000,1527000 1688000,2085000 721000,559000 1599000,978000 2630000,1260000 -291000,994000 -706000,2090000 -1248000,3295000 -538000,1202000 -1203000,2509000 -1992000,3931000l441000 244000c704000,-1236000 1326000,-2424000 1866000,-3568000 538000,-1143000 1001000,-2246000 1385000,-3302000 758000,-2115000 986000,-3486000 683000,-4111000 -298000,-616000 -861000,-725000 -1689000,-324000 -395000,191000 -832000,508000 -1304000,953000 -685000,-338000 -1163000,-790000 -1436000,-1354000 -215000,-443000 -343000,-1094000 -385000,-1952000l4562000 -2209000 -693000 -1430000 -10313000 4994000zm-6586000 3189000l692000 1430000 3053000 -1478000 5549000 11461000 371000 -180000 528000 -1987000 -4870000 -10058000 2248000 -1089000 -693000 -1430000 -6878000 3331000zm-6826000 3681000l10239000 -2649000 -398000 -1538000 -10239000 2649000 398000 1538000zm781000 4177000l3346000 -865000c-709000,1240000 -959000,2271000 -746000,3092000 196000,758000 611000,1326000 1240000,1699000 632000,370000 1333000,456000 2106000,256000 954000,-246000 1745000,-1047000 2370000,-2400000 625000,-1349000 1032000,-3100000 1227000,-5245000l-503000 -146000c-340000,2104000 -798000,3611000 -1370000,4513000 -570000,905000 -1148000,1433000 -1732000,1584000 -433000,112000 -822000,71000 -1164000,-121000 -346000,-194000 -573000,-507000 -685000,-939000 -84000,-326000 -62000,-745000 65000,-1260000 124000,-513000 694000,-1619000 1711000,-3314000l-6260000 1619000 395000 1527000zm-14494000 -2270000l397000 1538000 3295000 -852000 3189000 12328000 226000 -59000 1094000 -1857000 -808000 -3121000c788000,361000 1673000,412000 2664000,156000 714000,-185000 1382000,-622000 2000000,-1315000 617000,-692000 1378000,-1915000 2280000,-3675000l-56000 -218000c-1154000,192000 -2074000,114000 -2765000,-224000 -688000,-342000 -1144000,-946000 -1369000,-1815000 -177000,-684000 -78000,-1337000 305000,-1949000l3575000 -925000 -398000 -1538000 -13629000 3526000zm5393000 245000l4408000 -1140000c-849000,973000 -1141000,1980000 -871000,3023000 220000,850000 668000,1484000 1343000,1897000 672000,418000 1570000,612000 2698000,580000 -392000,603000 -782000,1078000 -1177000,1425000 -391000,350000 -783000,574000 -1182000,677000 -722000,187000 -1435000,158000 -2140000,-82000 -706000,-243000 -1176000,-504000 -1405000,-792000 -228000,-288000 -462000,-902000 -705000,-1842000l-969000 -3746000zm-12205000 7507000c798000,349000 1724000,492000 2780000,438000 805000,-42000 1729000,-293000 2772000,-759000 515000,929000 1020000,1611000 1521000,2040000 -687000,930000 -1324000,1774000 -1916000,2531000 -592000,754000 -1139000,1417000 -1641000,1990000l344000 361000c1028000,-1201000 1895000,-2252000 2595000,-3141000 700000,-892000 1239000,-1628000 1611000,-2205000 747000,-1167000 1105000,-2077000 1072000,-2725000 -20000,-378000 -122000,-659000 -308000,-841000 -185000,-182000 -453000,-264000 -804000,-245000 -408000,21000 -871000,175000 -1388000,454000 -377000,-497000 -589000,-1194000 -636000,-2098000 -28000,-549000 98000,-1145000 378000,-1786000l3601000 -186000 -82000 -1587000 -9978000 515000 82000 1587000 4947000 -255000c-211000,951000 -302000,1717000 -272000,2297000 31000,591000 167000,1303000 413000,2143000 -1060000,426000 -1932000,658000 -2607000,693000 -942000,49000 -1796000,-274000 -2574000,-976000l90000 1755000zm-13815000 -6534000l82000 1586000 3399000 -175000 656000 12717000 233000 -12000 1443000 -1600000 -166000 -3220000c700000,511000 1557000,738000 2579000,685000 736000,-38000 1478000,-332000 2222000,-887000 744000,-555000 1734000,-1600000 2970000,-3144000l-12000 -225000c-1168000,-43000 -2054000,-303000 -2663000,-773000 -606000,-473000 -932000,-1156000 -978000,-2053000 -37000,-705000 191000,-1325000 688000,-1848000l3689000 -191000 -82000 -1586000 -14060000 726000zm5235000 1320000l4547000 -234000c-1027000,783000 -1514000,1711000 -1459000,2786000 46000,878000 358000,1588000 937000,2128000 574000,544000 1416000,914000 2527000,1109000 -505000,512000 -982000,900000 -1439000,1160000 -453000,265000 -882000,405000 -1294000,427000 -743000,38000 -1437000,-133000 -2080000,-509000 -643000,-380000 -1051000,-729000 -1217000,-1057000 -166000,-328000 -272000,-977000 -322000,-1946000l-200000 -3864000zm-23165000 -3758000l-238000 1571000 3365000 509000 -1908000 12591000 495000 75000 1462000 -1262000 676000 -4460000 4547000 689000 -285000 1881000c-67000,441000 42000,686000 329000,730000 280000,42000 1003000,-397000 2163000,-1318000 1163000,-921000 1770000,-1563000 1825000,-1926000 35000,-230000 -122000,-370000 -469000,-422000l-1590000 -241000 776000 -5121000 3274000 496000 238000 -1571000 -14660000 -2221000zm8635000 8153000l-4547000 -689000 776000 -5120000 4547000 689000 -776000 5120000zm-5864000 7850000l620000 -1490000c-227000,-81000 -560000,-154000 -998000,-221000 -993000,-150000 -1863000,8000 -2611000,478000 -746000,466000 -1187000,1156000 -1326000,2074000 -136000,899000 74000,1653000 631000,2263000 557000,606000 1352000,989000 2395000,1147000 1099000,167000 2263000,-47000 3490000,-649000 1230000,-598000 2405000,-1544000 3521000,-2839000l-695000 -106000c-892000,939000 -1853000,1597000 -2892000,1980000 -1040000,384000 -2156000,481000 -3353000,300000 -913000,-139000 -1578000,-371000 -1991000,-704000 -413000,-329000 -581000,-752000 -503000,-1270000 64000,-419000 368000,-744000 917000,-973000 548000,-230000 1180000,-293000 1893000,-184000 378000,57000 677000,121000 902000,194000zm-14706000 -19450000l-470000 1518000 3065000 948000 -1308000 3481000 3236000 1001000c1179000,365000 1997000,834000 2465000,1414000 466000,576000 574000,1261000 329000,2053000 -183000,591000 -594000,1055000 -1230000,1391000 -640000,337000 -1332000,391000 -2073000,162000 -427000,-132000 -780000,-321000 -1051000,-569000 216000,-169000 380000,-442000 498000,-822000 92000,-299000 31000,-617000 -182000,-963000 -214000,-342000 -532000,-581000 -952000,-710000 -605000,-188000 -1156000,-166000 -1655000,64000 -495000,230000 -821000,601000 -981000,1115000 -148000,482000 63000,1079000 639000,1789000l-2821000 2010000 1063000 609000 2727000 -1887000c276000,165000 564000,294000 864000,387000 872000,269000 1801000,237000 2787000,-94000 990000,-329000 1814000,-822000 2471000,-1474000 658000,-653000 1087000,-1291000 1283000,-1926000 273000,-883000 147000,-1650000 -373000,-2295000 -524000,-646000 -1561000,-1210000 -3115000,-1691000l-1905000 -589000 631000 -2040000 7560000 2339000 470000 -1518000 -11972000 -3703000zm1373000 12467000l3182000 4214000 1438000 -899000 -4080000 -5060000 -540000 1745000zm-8365000 -14629000l-469000 1518000 3240000 1002000 -3763000 12165000 394000 122000 1742000 -1093000 3302000 -10676000 2386000 738000 470000 -1518000 -7302000 -2258000zm-17120000 -9329000l-756000 1398000 2994000 1618000 -6055000 11203000 460000 249000 1783000 -704000 2076000 -3841000 3552000 1920000c-784000,1908000 -1034000,2941000 -745000,3097000 242000,131000 1082000,-114000 2518000,-740000 1436000,-622000 2249000,-1116000 2444000,-1476000 99000,-185000 21000,-344000 -235000,-482000l-1703000 -921000c60000,-554000 257000,-1246000 593000,-2085000 229000,219000 557000,440000 977000,667000 675000,365000 1520000,448000 2529000,252000 1012000,-201000 1690000,-620000 2033000,-1255000 242000,-447000 317000,-892000 236000,-1336000 -82000,-443000 -328000,-776000 -734000,-995000 -1122000,-607000 -2352000,-629000 -3698000,-67000 -1342000,564000 -2383000,1534000 -3124000,2905000 -195000,359000 -359000,696000 -485000,1010000l-3424000 -1851000 2548000 -4714000 3041000 1643000 1760000 -854000 -8585000 -4641000zm7171000 8735000c461000,-854000 982000,-1440000 1565000,-1764000 581000,-319000 1132000,-343000 1649000,-63000 310000,167000 500000,426000 581000,774000 81000,348000 31000,681000 -143000,1003000 -258000,477000 -654000,785000 -1183000,911000 -534000,128000 -1088000,37000 -1666000,-275000 -275000,-149000 -543000,-346000 -803000,-586000zm-16389000 -16217000l-1009000 1228000 2480000 2036000 -2527000 2728000 2618000 2150000c953000,783000 1534000,1527000 1748000,2241000 213000,709000 54000,1384000 -472000,2025000 -393000,478000 -949000,752000 -1664000,823000 -720000,70000 -1382000,-142000 -1981000,-634000 -345000,-283000 -601000,-592000 -758000,-924000 264000,-75000 519000,-265000 771000,-572000 199000,-242000 263000,-560000 196000,-961000 -69000,-398000 -273000,-739000 -612000,-1017000 -490000,-403000 -1008000,-591000 -1557000,-567000 -545000,27000 -988000,247000 -1330000,663000 -320000,389000 -350000,1022000 -85000,1897000l-3371000 795000 754000 965000 3238000 -717000c194000,258000 411000,487000 654000,685000 705000,580000 1578000,901000 2615000,967000 1041000,69000 1990000,-76000 2846000,-431000 855000,-355000 1494000,-784000 1916000,-1298000 586000,-714000 759000,-1472000 521000,-2266000 -241000,-795000 -988000,-1710000 -2245000,-2743000l-1541000 -1265000 1355000 -1650000 6116000 5023000 1008000 -1228000 -9684000 -7953000zm-3440000 12061000l1353000 5104000 1670000 -288000 -1865000 -6227000 -1158000 1411000zm-2216000 -16706000l-1008000 1228000 2621000 2153000 -8081000 9841000 318000 262000 2025000 -354000 7093000 -8637000 1930000 1586000 1009000 -1228000 -5907000 -4851000zm-7818000 -8832000l-1173000 1072000 2295000 2513000 -9403000 8587000 157000 172000 2153000 98000 2381000 -2174000c50000,865000 419000,1671000 1109000,2427000 497000,544000 1196000,930000 2097000,1152000 901000,221000 2338000,322000 4315000,295000l166000 -152000c-709000,-930000 -1071000,-1779000 -1095000,-2548000 -20000,-768000 301000,-1454000 964000,-2059000 521000,-477000 1145000,-695000 1864000,-643000l2491000 2727000 1173000 -1072000 -9494000 -10395000zm2307000 4882000l3070000 3362000c-1257000,-295000 -2284000,-82000 -3079000,644000 -649000,592000 -999000,1285000 -1048000,2075000 -55000,790000 194000,1674000 750000,2656000 -716000,-65000 -1319000,-186000 -1811000,-374000 -492000,-181000 -873000,-423000 -1151000,-728000 -502000,-550000 -811000,-1194000 -929000,-1929000 -115000,-738000 -104000,-1275000 43000,-1612000 148000,-337000 581000,-831000 1298000,-1485000l2857000 -2609000zm-10750000 -17066000l-1356000 828000 2593000 4248000c-716000,124000 -1438000,408000 -2155000,846000 -789000,481000 -1427000,1108000 -1911000,1882000 -487000,772000 -819000,1686000 -999000,2740000 -1018000,-193000 -2149000,-500000 -3400000,-922000 -1249000,-419000 -2615000,-954000 -4106000,-1601000l-201000 463000c1299000,580000 2542000,1084000 3733000,1511000 1190000,424000 2332000,777000 3421000,1057000 2178000,550000 3565000,643000 4158000,281000 584000,-356000 638000,-927000 158000,-1712000 -229000,-375000 -587000,-779000 -1075000,-1205000 270000,-716000 673000,-1235000 1208000,-1561000 420000,-257000 1056000,-448000 1906000,-573000l2641000 4326000 1356000 -828000 -5971000 -9780000zm-3813000 -6246000l-1356000 828000 1767000 2895000 -10869000 6636000 215000 352000 2029000 332000 9538000 -5824000 1302000 2132000 1356000 -828000 -3982000 -6523000zm-5363000 -12652000l-1462000 622000 1325000 3118000 -11719000 4981000 185000 436000 1807000 639000 6517000 -2770000 1375000 3234000c-1333000,-517000 -2389000,-612000 -3170000,-280000 -720000,306000 -1220000,801000 -1496000,1478000 -272000,680000 -254000,1386000 59000,2121000 385000,907000 1294000,1571000 2724000,1988000 1428000,418000 3219000,562000 5369000,436000l70000 -519000c-2131000,-24000 -3689000,-254000 -4666000,-686000 -979000,-430000 -1587000,-923000 -1823000,-1478000 -175000,-412000 -192000,-803000 -53000,-1169000 141000,-371000 416000,-642000 828000,-816000 309000,-132000 727000,-173000 1255000,-123000 526000,46000 1704000,446000 3532000,1201000l-2552000 -6004000 2450000 -1042000 4273000 10054000 1462000 -622000 -6290000 -14799000zm-4769000 -19228000l-1556000 320000 686000 3333000 -12473000 2568000 106000 512000 1651000 920000 6917000 -1424000 560000 2716000c241000,1171000 214000,2026000 -76000,2566000 -295000,540000 -779000,878000 -1460000,1018000 -722000,149000 -1568000,19000 -2539000,-398000 -966000,-413000 -2270000,-1143000 -3914000,-2193000l-271000 446000c2191000,1475000 3825000,2402000 4902000,2785000 1076000,379000 2097000,469000 3062000,271000 816000,-168000 1427000,-536000 1829000,-1098000 403000,-563000 487000,-1407000 256000,-2529000l-803000 -3902000 2607000 -537000 1731000 8406000 1556000 -320000 -2771000 -13460000zm6821000 10649000l2007000 316000 -233000 -1130000c-132000,-643000 -366000,-1231000 -699000,-1767000 -337000,-538000 -763000,-1001000 -1277000,-1394000 -514000,-393000 -1376000,-867000 -2578000,-1419000l-3532000 -1624000 141000 680000 2790000 1356000c914000,444000 1613000,920000 2090000,1438000 480000,513000 808000,1198000 984000,2051000l307000 1493000z"/>
  <circle class="fil3" cx="61595000" cy="170100000" r="4250000"/>
  <circle class="fil3" cx="279596000" cy="170100000" r="4250000"/>
  <g id="_1408849705552">
   <path class="fil4 str0" d="M170000000 36839000c-11650000,-89000 -18850000,1411000 -22750000,-2889000 -3900000,-4300000 -1500000,-9900000 -5800000,-15000000 20300000,-1200000 26675000,9796000 28550000,17889000z"/>
   <path class="fil4 str0" d="M170000000 36839000c-8875000,-91000 -13150000,911000 -17250000,-3689000 -4100000,-4600000 -2084000,-14969000 -6484000,-19469000 15500000,500000 22184000,10469000 23734000,23158000z"/>
   <path class="fil4 str0" d="M170000000 36839000c-5250000,-889000 -10850000,-2289000 -13656000,-7653000 -2805000,-5363000 -627000,-14536000 -794000,-21036000 8900000,3400000 15400000,8800000 14450000,28689000z"/>
   <path class="fil4 str0" d="M170000000 36839000c11649000,-89000 18849000,1411000 22749000,-2889000 3900000,-4300000 1500000,-9900000 5800000,-15000000 -20300000,-1200000 -26675000,9796000 -28549000,17889000z"/>
   <path class="fil4 str0" d="M170000000 36839000c8875000,-91000 13149000,911000 17249000,-3689000 4100000,-4600000 2085000,-14969000 6485000,-19469000 -15500000,500000 -22185000,10469000 -23734000,23158000z"/>
   <path class="fil4 str0" d="M170000000 36839000c5249000,-889000 10849000,-2289000 13655000,-7653000 2805000,-5363000 627000,-14536000 794000,-21036000 -8900000,3400000 -15400000,8800000 -14449000,28689000z"/>
   <path class="fil4 str0" d="M170000000 36839000c-5691000,-4335000 -8700000,-7539000 -8850000,-15389000 -150000,-7850000 5550000,-12350000 8850000,-19661000 3300000,7311000 9000000,11811000 8850000,19661000 -150000,7850000 -3159000,11054000 -8850000,15389000z"/>
  </g>
  <circle class="fil1 str1" cx="170000000" cy="170100000" r="133261000"/>
  <g id="_1408663277312">
   <path class="fil4 str0" d="M118990000 46951000c-10797000,4375000 -16875000,8516000 -22124000,6036000 -5249000,-2480000 -5174000,-8572000 -11099000,-11638000 18296000,-8878000 28394000,-1158000 33223000,5602000z"/>
   <path class="fil4 str0" d="M118990000 46951000c-8235000,3312000 -11800000,5873000 -17349000,3192000 -5548000,-2680000 -7654000,-13032000 -13441000,-15505000 14511000,-5470000 24502000,1182000 30790000,12313000z"/>
   <path class="fil4 str0" d="M118990000 46951000c-5190000,1187000 -10900000,2037000 -15545000,-1845000 -4644000,-3882000 -6142000,-13190000 -8784000,-19131000 9524000,-265000 17596000,2237000 24329000,20976000z"/>
   <path class="fil4 str0" d="M118990000 46951000c10728000,-4541000 17954000,-5910000 19912000,-11375000 1958000,-5466000 -2403000,-9721000 -382000,-16078000 -19214000,6660000 -20896000,19258000 -19530000,27453000z"/>
   <path class="fil4 str0" d="M118990000 46951000c8164000,-3481000 12497000,-4191000 14524000,-10010000 2028000,-5819000 -3802000,-14627000 -1459000,-20469000 -14129000,6394000 -16490000,18162000 -13065000,30479000z"/>
   <path class="fil4 str0" d="M118990000 46951000c4509000,-2831000 9147000,-6267000 9687000,-12296000 539000,-6029000 -4983000,-13670000 -7317000,-19739000 -6921000,6547000 -10860000,14023000 -2370000,32035000z"/>
   <path class="fil4 str0" d="M118990000 46951000c-6917000,-1828000 -10923000,-3636000 -14065000,-10832000 -3143000,-7195000 401000,-13533000 652000,-21550000 5847000,5491000 12835000,7467000 15700000,14777000 2866000,7310000 1312000,11422000 -2287000,17605000z"/>
  </g>
  <g id="_1372540608256">
   <path class="fil4 str0" d="M75770000 75871000c-8301000,8174000 -12331000,14326000 -18130000,14043000 -5798000,-283000 -8061000,-5940000 -14707000,-6506000 13505000,-15202000 25788000,-11935000 32837000,-7537000z"/>
   <path class="fil4 str0" d="M75770000 75871000c-6341000,6210000 -8654000,9942000 -14806000,9588000 -6152000,-354000 -12059000,-9111000 -18352000,-9181000 11314000,-10607000 23090000,-8285000 33158000,-407000z"/>
   <path class="fil4 str0" d="M75770000 75871000c-4341000,3083000 -9291000,6052000 -15067000,4244000 -5777000,-1809000 -10723000,-9835000 -15437000,-14314000 8697000,-3889000 17112000,-4666000 30504000,10070000z"/>
   <path class="fil4 str0" d="M75770000 75871000c8174000,-8301000 14326000,-12332000 14043000,-18130000 -283000,-5798000 -5940000,-8061000 -6505000,-14708000 -15203000,13506000 -11936000,25789000 -7538000,32838000z"/>
   <path class="fil4 str0" d="M75770000 75871000c6211000,-6341000 9942000,-8655000 9588000,-14807000 -353000,-6151000 -9110000,-12058000 -9181000,-18352000 -10607000,11314000 -8284000,23090000 -407000,33159000z"/>
   <path class="fil4 str0" d="M75770000 75871000c3083000,-4341000 6053000,-9291000 4244000,-15068000 -1809000,-5776000 -9835000,-10722000 -14313000,-15436000 -3889000,8697000 -4667000,17112000 10069000,30504000z"/>
   <path class="fil4 str0" d="M75770000 75870000c-7089000,959000 -11483000,821000 -17140000,-4624000 -5656000,-5445000 -4808000,-12657000 -7644000,-20160000 7503000,2836000 14715000,1987000 20160000,7644000 5445000,5657000 5583000,10051000 4624000,17140000z"/>
  </g>
  <g id="_1372540612832">
   <path class="fil4 str0" d="M46850000 119090000c-4540000,10729000 -5910000,17955000 -11375000,19913000 -5465000,1957000 -9721000,-2403000 -16078000,-382000 6660000,-19214000 19258000,-20896000 27453000,-19531000z"/>
   <path class="fil4 str0" d="M46850000 119090000c-3481000,8165000 -4191000,12498000 -10009000,14525000 -5819000,2028000 -14628000,-3802000 -20469000,-1460000 6394000,-14128000 18162000,-16489000 30478000,-13065000z"/>
   <path class="fil4 str0" d="M46850000 119090000c-2830000,4510000 -6267000,9148000 -12296000,9688000 -6029000,539000 -13670000,-4983000 -19739000,-7317000 6547000,-6921000 14024000,-10860000 32035000,-2371000z"/>
   <path class="fil4 str0" d="M46850000 119090000c4376000,-10797000 8517000,-16875000 6037000,-22123000 -2480000,-5249000 -8573000,-5175000 -11639000,-11099000 -8877000,18296000 -1158000,28393000 5602000,33222000z"/>
   <path class="fil4 str0" d="M46850000 119090000c3312000,-8234000 5874000,-11800000 3193000,-17348000 -2681000,-5548000 -13032000,-7654000 -15506000,-13441000 -5469000,14511000 1183000,24502000 12313000,30789000z"/>
   <path class="fil4 str0" d="M46850000 119090000c1187000,-5190000 2037000,-10899000 -1845000,-15544000 -3881000,-4645000 -13189000,-6143000 -19131000,-8784000 -264000,9523000 2237000,17595000 20976000,24328000z"/>
   <path class="fil4 str0" d="M46850000 119090000c-6183000,3599000 -10294000,5153000 -17604000,2287000 -7310000,-2865000 -9286000,-9854000 -14777000,-15700000 8016000,-251000 14355000,-3795000 21550000,-653000 7195000,3143000 9004000,7149000 10831000,14066000z"/>
  </g>
  <g id="_1372983456864">
   <path class="fil4 str0" d="M36739000 170100000c-89000,11650000 1410000,18850000 -2890000,22750000 -4299000,3900000 -9900000,1500000 -15000000,5800000 -1200000,-20300000 9796000,-26675000 17890000,-28550000z"/>
   <path class="fil4 str0" d="M36739000 170100000c-92000,8875000 911000,13150000 -3689000,17250000 -4601000,4100000 -14970000,2084000 -19470000,6484000 500000,-15500000 10469000,-22184000 23159000,-23734000z"/>
   <path class="fil4 str0" d="M36739000 170100000c-889000,5250000 -2290000,10850000 -7653000,13656000 -5364000,2805000 -14537000,627000 -21037000,794000 3400000,-8900000 8800000,-15400000 28690000,-14450000z"/>
   <path class="fil4 str0" d="M36739000 170100000c-89000,-11649000 1410000,-18849000 -2890000,-22749000 -4299000,-3900000 -9900000,-1500000 -15000000,-5800000 -1200000,20300000 9796000,26675000 17890000,28549000z"/>
   <path class="fil4 str0" d="M36739000 170100000c-92000,-8875000 911000,-13149000 -3689000,-17249000 -4601000,-4100000 -14970000,-2085000 -19470000,-6485000 500000,15500000 10469000,22185000 23159000,23734000z"/>
   <path class="fil4 str0" d="M36739000 170100000c-889000,-5249000 -2290000,-10849000 -7653000,-13655000 -5364000,-2805000 -14537000,-627000 -21037000,-794000 3400000,8900000 8800000,15400000 28690000,14449000z"/>
   <path class="fil4 str0" d="M36739000 170100000c-4335000,5691000 -7539000,8700000 -15390000,8850000 -7850000,150000 -12349000,-5550000 -19660000,-8850000 7311000,-3300000 11810000,-9000000 19660000,-8850000 7851000,150000 11055000,3159000 15390000,8850000z"/>
  </g>
  <g id="_1372544048880">
   <path class="fil4 str0" d="M221010000 46951000c10797000,4376000 16875000,8517000 22123000,6037000 5249000,-2480000 5175000,-8573000 11099000,-11639000 -18295000,-8877000 -28393000,-1158000 -33222000,5602000z"/>
   <path class="fil4 str0" d="M221010000 46951000c8234000,3312000 11800000,5874000 17348000,3193000 5548000,-2681000 7655000,-13032000 13442000,-15506000 -14512000,-5469000 -24503000,1183000 -30790000,12313000z"/>
   <path class="fil4 str0" d="M221010000 46951000c5190000,1188000 10900000,2037000 15544000,-1845000 4645000,-3881000 6143000,-13189000 8784000,-19131000 -9523000,-264000 -17595000,2237000 -24328000,20976000z"/>
   <path class="fil4 str0" d="M221010000 46951000c-10729000,-4540000 -17955000,-5910000 -19912000,-11375000 -1958000,-5465000 2402000,-9720000 382000,-16078000 19214000,6660000 20895000,19258000 19530000,27453000z"/>
   <path class="fil4 str0" d="M221010000 46951000c-8165000,-3481000 -12497000,-4190000 -14525000,-10009000 -2027000,-5819000 3803000,-14628000 1460000,-20469000 14129000,6394000 16489000,18162000 13065000,30478000z"/>
   <path class="fil4 str0" d="M221010000 46951000c-4510000,-2830000 -9148000,-6267000 -9687000,-12296000 -540000,-6029000 4983000,-13670000 7316000,-19739000 6922000,6547000 10860000,14024000 2371000,32035000z"/>
   <path class="fil4 str0" d="M221010000 46951000c6916000,-1827000 10922000,-3636000 14065000,-10831000 3143000,-7195000 -401000,-13534000 -653000,-21551000 -5846000,5491000 -12834000,7468000 -15700000,14778000 -2865000,7309000 -1312000,11421000 2288000,17604000z"/>
  </g>
  <g id="_1408658884240">
   <path class="fil4 str0" d="M264230000 75871000c8300000,8174000 12331000,14326000 18129000,14043000 5798000,-282000 8061000,-5939000 14708000,-6505000 -13506000,-15203000 -25789000,-11936000 -32837000,-7538000z"/>
   <path class="fil4 str0" d="M264230000 75871000c6340000,6211000 8654000,9942000 14806000,9589000 6152000,-354000 12059000,-9111000 18352000,-9182000 -11314000,-10607000 -23090000,-8284000 -33158000,-407000z"/>
   <path class="fil4 str0" d="M264230000 75871000c4341000,3083000 9290000,6053000 15067000,4244000 5776000,-1809000 10722000,-9835000 15436000,-14313000 -8697000,-3889000 -17111000,-4667000 -30503000,10069000z"/>
   <path class="fil4 str0" d="M264230000 75871000c-8175000,-8301000 -14326000,-12331000 -14044000,-18129000 283000,-5799000 5940000,-8062000 6506000,-14708000 15203000,13505000 11935000,25789000 7538000,32837000z"/>
   <path class="fil4 str0" d="M264230000 75871000c-6211000,-6340000 -9942000,-8654000 -9589000,-14806000 354000,-6152000 9111000,-12059000 9182000,-18352000 10606000,11314000 8284000,23090000 407000,33158000z"/>
   <path class="fil4 str0" d="M264230000 75871000c-3083000,-4341000 -6053000,-9291000 -4244000,-15067000 1808000,-5777000 9834000,-10723000 14313000,-15437000 3889000,8698000 4667000,17112000 -10069000,30504000z"/>
   <path class="fil4 str0" d="M264229000 75871000c7090000,959000 11483000,820000 17140000,-4624000 5657000,-5445000 4808000,-12658000 7644000,-20160000 -7502000,2836000 -14715000,1987000 -20160000,7644000 -5444000,5657000 -5583000,10050000 -4624000,17140000z"/>
  </g>
  <g id="_1408658878416">
   <path class="fil4 str0" d="M293150000 119091000c4540000,10729000 5910000,17954000 11375000,19912000 5465000,1958000 9720000,-2403000 16077000,-382000 -6659000,-19214000 -19258000,-20896000 -27452000,-19530000z"/>
   <path class="fil4 str0" d="M293150000 119091000c3480000,8164000 4190000,12497000 10009000,14525000 5819000,2027000 14627000,-3803000 20469000,-1460000 -6394000,-14129000 -18162000,-16490000 -30478000,-13065000z"/>
   <path class="fil4 str0" d="M293150000 119091000c2830000,4510000 6266000,9147000 12295000,9687000 6030000,540000 13671000,-4983000 19740000,-7316000 -6547000,-6922000 -14024000,-10860000 -32035000,-2371000z"/>
   <path class="fil4 str0" d="M293150000 119091000c-4376000,-10797000 -8517000,-16875000 -6037000,-22124000 2480000,-5248000 8572000,-5174000 11639000,-11098000 8877000,18295000 1158000,28393000 -5602000,33222000z"/>
   <path class="fil4 str0" d="M293150000 119091000c-3312000,-8235000 -5874000,-11800000 -3193000,-17348000 2681000,-5549000 13032000,-7655000 15506000,-13442000 5469000,14512000 -1183000,24502000 -12313000,30790000z"/>
   <path class="fil4 str0" d="M293150000 119091000c-1188000,-5190000 -2037000,-10900000 1844000,-15545000 3882000,-4644000 13190000,-6142000 19131000,-8784000 265000,9524000 -2236000,17596000 -20975000,24329000z"/>
   <path class="fil4 str0" d="M293149000 119090000c6183000,3599000 10295000,5153000 17605000,2288000 7310000,-2866000 9286000,-9854000 14777000,-15700000 -8017000,-252000 -14356000,-3796000 -21551000,-653000 -7195000,3143000 -9004000,7149000 -10831000,14065000z"/>
  </g>
  <g id="_1373101791984">
   <path class="fil4 str0" d="M221010000 293249000c10797000,-4376000 16875000,-8517000 22123000,-6037000 5249000,2480000 5175000,8572000 11099000,11639000 -18295000,8877000 -28393000,1158000 -33222000,-5602000z"/>
   <path class="fil4 str0" d="M221010000 293249000c8234000,-3312000 11800000,-5874000 17348000,-3193000 5548000,2681000 7655000,13032000 13442000,15506000 -14512000,5469000 -24503000,-1183000 -30790000,-12313000z"/>
   <path class="fil4 str0" d="M221010000 293249000c5190000,-1188000 10900000,-2037000 15544000,1844000 4645000,3882000 6143000,13190000 8784000,19132000 -9523000,264000 -17595000,-2237000 -24328000,-20976000z"/>
   <path class="fil4 str0" d="M221010000 293249000c-10729000,4540000 -17955000,5910000 -19912000,11375000 -1958000,5465000 2402000,9720000 382000,16078000 19214000,-6660000 20895000,-19259000 19530000,-27453000z"/>
   <path class="fil4 str0" d="M221010000 293249000c-8165000,3480000 -12497000,4190000 -14525000,10009000 -2027000,5819000 3803000,14628000 1460000,20469000 14129000,-6394000 16489000,-18162000 13065000,-30478000z"/>
   <path class="fil4 str0" d="M221010000 293249000c-4510000,2830000 -9148000,6267000 -9687000,12296000 -540000,6029000 4983000,13670000 7316000,19739000 6922000,-6547000 10860000,-14024000 2371000,-32035000z"/>
   <path class="fil4 str0" d="M221010000 293249000c6916000,1827000 10922000,3636000 14065000,10831000 3143000,7195000 -401000,13534000 -653000,21551000 -5846000,-5492000 -12834000,-7468000 -15700000,-14778000 -2865000,-7310000 -1312000,-11421000 2288000,-17604000z"/>
  </g>
  <g id="_1373101762064">
   <path class="fil4 str0" d="M264230000 264329000c8300000,-8174000 12331000,-14326000 18129000,-14043000 5798000,282000 8061000,5939000 14708000,6505000 -13506000,15203000 -25789000,11936000 -32837000,7538000z"/>
   <path class="fil4 str0" d="M264230000 264329000c6340000,-6211000 8654000,-9942000 14806000,-9589000 6152000,354000 12059000,9111000 18352000,9182000 -11314000,10606000 -23090000,8284000 -33158000,407000z"/>
   <path class="fil4 str0" d="M264230000 264329000c4341000,-3083000 9290000,-6053000 15067000,-4244000 5776000,1808000 10722000,9835000 15436000,14313000 -8697000,3889000 -17111000,4667000 -30503000,-10069000z"/>
   <path class="fil4 str0" d="M264230000 264329000c-8175000,8300000 -14326000,12331000 -14044000,18129000 283000,5799000 5940000,8061000 6506000,14708000 15203000,-13506000 11935000,-25789000 7538000,-32837000z"/>
   <path class="fil4 str0" d="M264230000 264329000c-6211000,6340000 -9942000,8654000 -9589000,14806000 354000,6152000 9111000,12059000 9182000,18352000 10606000,-11314000 8284000,-23090000 407000,-33158000z"/>
   <path class="fil4 str0" d="M264230000 264329000c-3083000,4341000 -6053000,9290000 -4244000,15067000 1808000,5777000 9834000,10723000 14313000,15437000 3889000,-8698000 4667000,-17112000 -10069000,-30504000z"/>
   <path class="fil4 str0" d="M264229000 264329000c7090000,-959000 11483000,-821000 17140000,4624000 5657000,5445000 4808000,12657000 7644000,20160000 -7502000,-2836000 -14715000,-1987000 -20160000,-7644000 -5444000,-5657000 -5583000,-10050000 -4624000,-17140000z"/>
  </g>
  <g id="_1373101810224">
   <path class="fil4 str0" d="M293150000 221109000c4540000,-10729000 5910000,-17955000 11375000,-19912000 5465000,-1958000 9720000,2402000 16077000,382000 -6659000,19214000 -19258000,20895000 -27452000,19530000z"/>
   <path class="fil4 str0" d="M293150000 221109000c3480000,-8165000 4190000,-12497000 10009000,-14525000 5819000,-2027000 14627000,3803000 20469000,1460000 -6394000,14129000 -18162000,16489000 -30478000,13065000z"/>
   <path class="fil4 str0" d="M293150000 221109000c2830000,-4510000 6266000,-9148000 12295000,-9687000 6030000,-540000 13671000,4983000 19740000,7316000 -6547000,6922000 -14024000,10860000 -32035000,2371000z"/>
   <path class="fil4 str0" d="M293150000 221109000c-4376000,10797000 -8517000,16875000 -6037000,22123000 2480000,5249000 8572000,5175000 11639000,11099000 8877000,-18295000 1158000,-28393000 -5602000,-33222000z"/>
   <path class="fil4 str0" d="M293150000 221109000c-3312000,8234000 -5874000,11800000 -3193000,17348000 2681000,5548000 13032000,7654000 15506000,13442000 5469000,-14512000 -1183000,-24503000 -12313000,-30790000z"/>
   <path class="fil4 str0" d="M293150000 221109000c-1188000,5190000 -2037000,10900000 1844000,15544000 3882000,4645000 13190000,6143000 19131000,8784000 265000,-9523000 -2236000,-17595000 -20975000,-24328000z"/>
   <path class="fil4 str0" d="M293149000 221109000c6183000,-3599000 10295000,-5152000 17605000,-2287000 7310000,2866000 9286000,9854000 14777000,15700000 -8017000,251000 -14356000,3796000 -21551000,653000 -7195000,-3143000 -9004000,-7149000 -10831000,-14066000z"/>
  </g>
  <g id="_1373023511152">
   <path class="fil4 str0" d="M118990000 293249000c-10797000,-4375000 -16875000,-8517000 -22124000,-6036000 -5249000,2480000 -5174000,8572000 -11099000,11638000 18296000,8877000 28394000,1158000 33223000,-5602000z"/>
   <path class="fil4 str0" d="M118990000 293249000c-8235000,-3312000 -11801000,-5873000 -17349000,-3192000 -5548000,2680000 -7654000,13031000 -13441000,15505000 14511000,5470000 24502000,-1182000 30790000,-12313000z"/>
   <path class="fil4 str0" d="M118990000 293249000c-5191000,-1187000 -10900000,-2037000 -15545000,1845000 -4645000,3882000 -6143000,13190000 -8784000,19131000 9524000,265000 17595000,-2237000 24329000,-20976000z"/>
   <path class="fil4 str0" d="M118990000 293249000c10728000,4541000 17954000,5910000 19912000,11375000 1957000,5465000 -2403000,9721000 -382000,16078000 -19214000,-6660000 -20896000,-19258000 -19530000,-27453000z"/>
   <path class="fil4 str0" d="M118990000 293249000c8164000,3481000 12497000,4191000 14524000,10010000 2028000,5819000 -3802000,14627000 -1459000,20468000 -14129000,-6393000 -16490000,-18162000 -13065000,-30478000z"/>
   <path class="fil4 str0" d="M118990000 293249000c4509000,2831000 9147000,6267000 9687000,12296000 539000,6029000 -4983000,13670000 -7317000,19739000 -6921000,-6547000 -10860000,-14023000 -2370000,-32035000z"/>
   <path class="fil4 str0" d="M118990000 293249000c-6917000,1827000 -10923000,3636000 -14066000,10831000 -3142000,7196000 402000,13534000 653000,21551000 5846000,-5491000 12835000,-7467000 15700000,-14777000 2866000,-7310000 1312000,-11422000 -2287000,-17605000z"/>
  </g>
  <g id="_1373023567824">
   <path class="fil4 str0" d="M75770000 264329000c-8301000,-8174000 -12332000,-14326000 -18130000,-14043000 -5798000,283000 -8061000,5940000 -14707000,6506000 13505000,15202000 25788000,11935000 32837000,7537000z"/>
   <path class="fil4 str0" d="M75770000 264329000c-6341000,-6210000 -8654000,-9942000 -14806000,-9588000 -6152000,353000 -12059000,9111000 -18352000,9181000 11313000,10607000 23089000,8284000 33158000,407000z"/>
   <path class="fil4 str0" d="M75770000 264329000c-4341000,-3083000 -9291000,-6053000 -15067000,-4244000 -5777000,1809000 -10723000,9835000 -15437000,14314000 8697000,3889000 17112000,4666000 30504000,-10070000z"/>
   <path class="fil4 str0" d="M75770000 264329000c8174000,8301000 14326000,12332000 14043000,18130000 -283000,5798000 -5940000,8061000 -6505000,14708000 -15203000,-13506000 -11936000,-25789000 -7538000,-32838000z"/>
   <path class="fil4 str0" d="M75770000 264329000c6211000,6341000 9942000,8655000 9588000,14806000 -353000,6152000 -9111000,12059000 -9181000,18352000 -10607000,-11313000 -8284000,-23089000 -407000,-33158000z"/>
   <path class="fil4 str0" d="M75770000 264329000c3083000,4341000 6053000,9291000 4244000,15068000 -1809000,5776000 -9835000,10722000 -14313000,15436000 -3890000,-8697000 -4667000,-17112000 10069000,-30504000z"/>
   <path class="fil4 str0" d="M75770000 264330000c-7089000,-959000 -11483000,-821000 -17140000,4624000 -5657000,5445000 -4808000,12657000 -7644000,20160000 7503000,-2836000 14715000,-1988000 20160000,-7644000 5445000,-5657000 5583000,-10051000 4624000,-17140000z"/>
  </g>
  <g id="_1373023562320">
   <path class="fil4 str0" d="M46850000 221109000c-4541000,-10728000 -5910000,-17954000 -11375000,-19912000 -5465000,-1957000 -9721000,2403000 -16078000,382000 6660000,19214000 19258000,20896000 27453000,19530000z"/>
   <path class="fil4 str0" d="M46850000 221109000c-3481000,-8164000 -4191000,-12497000 -10010000,-14524000 -5818000,-2028000 -14627000,3802000 -20468000,1459000 6393000,14129000 18162000,16490000 30478000,13065000z"/>
   <path class="fil4 str0" d="M46850000 221109000c-2830000,-4509000 -6267000,-9147000 -12296000,-9687000 -6029000,-539000 -13670000,4983000 -19739000,7317000 6547000,6921000 14023000,10860000 32035000,2370000z"/>
   <path class="fil4 str0" d="M46850000 221109000c4376000,10797000 8517000,16875000 6036000,22124000 -2480000,5249000 -8572000,5174000 -11638000,11099000 -8877000,-18296000 -1158000,-28394000 5602000,-33223000z"/>
   <path class="fil4 str0" d="M46850000 221109000c3312000,8235000 5874000,11801000 3193000,17349000 -2681000,5548000 -13032000,7654000 -15506000,13441000 -5470000,-14511000 1183000,-24502000 12313000,-30790000z"/>
   <path class="fil4 str0" d="M46850000 221109000c1187000,5191000 2037000,10900000 -1845000,15545000 -3881000,4645000 -13190000,6143000 -19131000,8784000 -265000,-9524000 2237000,-17595000 20976000,-24329000z"/>
   <path class="fil4 str0" d="M46850000 221110000c-6183000,-3599000 -10295000,-5153000 -17604000,-2287000 -7310000,2865000 -9286000,9854000 -14778000,15700000 8017000,251000 14356000,3795000 21551000,653000 7195000,-3143000 9004000,-7149000 10831000,-14066000z"/>
  </g>
  <g id="_1373023531824">
   <path class="fil4 str0" d="M303260000 170100000c90000,11650000 -1410000,18850000 2890000,22750000 4300000,3900000 9900000,1500000 15000000,5800000 1200000,-20300000 -9796000,-26675000 -17890000,-28550000z"/>
   <path class="fil4 str0" d="M303260000 170100000c92000,8875000 -910000,13150000 3690000,17250000 4600000,4100000 14969000,2084000 19469000,6484000 -500000,-15500000 -10469000,-22184000 -23159000,-23734000z"/>
   <path class="fil4 str0" d="M303260000 170100000c890000,5250000 2290000,10850000 7653000,13656000 5364000,2805000 14537000,627000 21037000,794000 -3400000,-8900000 -8800000,-15400000 -28690000,-14450000z"/>
   <path class="fil4 str0" d="M303260000 170100000c90000,-11649000 -1410000,-18849000 2890000,-22749000 4300000,-3900000 9900000,-1500000 15000000,-5800000 1200000,20300000 -9796000,26675000 -17890000,28549000z"/>
   <path class="fil4 str0" d="M303260000 170100000c92000,-8875000 -910000,-13149000 3690000,-17249000 4600000,-4100000 14969000,-2085000 19469000,-6485000 -500000,15500000 -10469000,22185000 -23159000,23734000z"/>
   <path class="fil4 str0" d="M303260000 170100000c890000,-5249000 2290000,-10849000 7653000,-13655000 5364000,-2805000 14537000,-627000 21037000,-794000 -3400000,8900000 -8800000,15400000 -28690000,14449000z"/>
   <path class="fil4 str0" d="M303260000 170100000c4335000,5691000 7540000,8700000 15390000,8850000 7850000,150000 12350000,-5550000 19660000,-8850000 -7310000,-3300000 -11810000,-9000000 -19660000,-8850000 -7850000,150000 -11055000,3159000 -15390000,8850000z"/>
  </g>
  <g id="_1373023517488">
   <path class="fil4 str0" d="M169999000 303361000c-11649000,89000 -18849000,-1411000 -22749000,2889000 -3900000,4300000 -1500000,9900000 -5800000,15000000 20300000,1200000 26675000,-9796000 28549000,-17889000z"/>
   <path class="fil4 str0" d="M169999000 303361000c-8875000,91000 -13149000,-911000 -17249000,3689000 -4100000,4600000 -2085000,14969000 -6485000,19469000 15500000,-500000 22185000,-10469000 23734000,-23158000z"/>
   <path class="fil4 str0" d="M169999000 303361000c-5249000,889000 -10849000,2289000 -13655000,7653000 -2806000,5363000 -628000,14536000 -794000,21036000 8900000,-3400000 15400000,-8800000 14449000,-28689000z"/>
   <path class="fil4 str0" d="M169999000 303361000c11650000,89000 18850000,-1411000 22750000,2889000 3900000,4300000 1500000,9900000 5800000,15000000 -20300000,1200000 -26675000,-9796000 -28550000,-17889000z"/>
   <path class="fil4 str0" d="M169999000 303361000c8875000,91000 13150000,-911000 17250000,3689000 4100000,4600000 2084000,14969000 6484000,19469000 -15500000,-500000 -22184000,-10469000 -23734000,-23158000z"/>
   <path class="fil4 str0" d="M169999000 303361000c5250000,889000 10850000,2289000 13655000,7653000 2806000,5363000 628000,14536000 795000,21036000 -8900000,-3400000 -15400000,-8800000 -14450000,-28689000z"/>
   <path class="fil4 str0" d="M170000000 303361000c-5692000,4335000 -8700000,7539000 -8850000,15389000 -150000,7850000 5550000,12350000 8850000,19661000 3300000,-7311000 9000000,-11811000 8850000,-19661000 -150000,-7850000 -3159000,-11054000 -8850000,-15389000z"/>
  </g>
  <g id="_1372990673680">
   <ellipse class="fil4 str2" cx="170000000" cy="239629000" rx="52300000" ry="16011000"/>
   <path class="fil3 str2" d="M170000000 232752000c21849000,0 39561000,-4189000 39561000,-9356000 0,-5167000 -17712000,-9356000 -39561000,-9356000 -21849000,0 -39561000,4189000 -39561000,9356000 0,5167000 17712000,9356000 39561000,9356000z"/>
   <polygon class="fil4" points="138248000,234390000 170000000,207209000 201752000,234390000 "/>
   <path class="fil4 str2" d="M170000000 238665000c31094000,0 56300000,-7717000 56300000,-17236000 0,-9519000 -25206000,-17236000 -56300000,-17236000 -31094000,0 -56300000,7717000 -56300000,17236000 0,9519000 25206000,17236000 56300000,17236000zm0 -5913000c21849000,0 39561000,-4189000 39561000,-9356000 0,-5167000 -17712000,-9356000 -39561000,-9356000 -21849000,0 -39561000,4189000 -39561000,9356000 0,5167000 17712000,9356000 39561000,9356000z"/>
   <polygon class="fil4" points="189399000,223815000 150601000,223815000 170000000,207209000 "/>
   <path class="fil4 str2" d="M170000000 222459000c-12620000,0 -18054000,-3987000 -18054000,-10796000 0,-6809000 3269000,-20427000 18054000,-20427000 14785000,0 18054000,13618000 18054000,20427000 0,6809000 -5434000,10796000 -18054000,10796000z"/>
   <ellipse class="fil4 str2" cx="170000000" cy="207459000" rx="5100000" ry="7350000"/>
   <circle class="fil4 str2" transform="matrix(0.19888 0.0723864 -0.167232 0.459467 1.55192E+08 2.04823E+08)" r="14700000"/>
   <circle class="fil4 str2" transform="matrix(-0.19888 0.0723864 0.167232 0.459467 1.84808E+08 2.04823E+08)" r="14700000"/>
   <path class="fil3 str2" d="M170000000 197036000c-6902000,0 -9400000,-796000 -10820000,-2370000 -6441000,-7173000 -9582000,-12201000 -30080000,-17326000 -6800000,-1700000 -7200000,-7026000 -15467000,-14054000l56367000 1151000 56367000 -1151000c-8267000,7028000 -8667000,12354000 -15467000,14054000 -20498000,5125000 -23638000,10153000 -30080000,17326000 -1420000,1574000 -3918000,2370000 -10820000,2370000z"/>
   <ellipse class="fil4 str2" cx="170000000" cy="163286000" rx="52334000" ry="12351000"/>
   <path class="fil4 str2" d="M115500000 162740000c-2400000,-3600000 -4070000,-6636000 -3400000,-12400000 670000,-5763000 6800000,-15700000 6500000,-22600000 9700000,11200000 2100000,27600000 -3100000,35000000z"/>
   <path class="fil4 str2" d="M131600000 154140000c2900000,-2700000 5300000,-5000000 5418000,-9609000 119000,-4609000 -2718000,-7191000 -2118000,-12491000 -8100000,5900000 -6300000,16500000 -3300000,22100000z"/>
   <path class="fil4 str2" d="M224500000 162740000c2400000,-3600000 4070000,-6636000 3400000,-12400000 -670000,-5763000 -6800000,-15700000 -6500000,-22600000 -9700000,11200000 -2100000,27600000 3100000,35000000z"/>
   <path class="fil4 str2" d="M208400000 154140000c-2900000,-2700000 -5300000,-5000000 -5418000,-9609000 -119000,-4609000 2718000,-7191000 2118000,-12491000 8100000,5900000 6300000,16500000 3300000,22100000z"/>
   <path class="fil4 str2" d="M178595000 173332000c3379000,-160000 6616000,-413000 9662000,-747000l-4000 1000 12147000 3154000 1429000 -5486000c5310000,-1350000 9098000,-3039000 10715000,-4914000l0 1000 13823000 -2055000 -13823000 -2055000 0 0c-4031000,-4674000 -21546000,-8192000 -42544000,-8192000 -20998000,0 -38513000,3518000 -42544000,8192000l0 0 -13823000 2055000 13823000 2055000 0 -1000c1617000,1875000 5405000,3564000 10715000,4914000l1429000 5486000 12147000 -3154000 -4000 -1000c3046000,334000 6283000,587000 9662000,747000l-6000 0 8601000 7004000 8601000 -7004000 -6000 0z"/>
   <path class="fil4 str2" d="M170000000 166688000c-9500000,0 -13829000,-1649000 -15110000,-7598000 -1280000,-5949000 9188000,-13409000 9688000,-16809000 500000,-3400000 -2759000,-1980000 -1878000,-7441000 881000,-5460000 7300000,-8791000 7300000,-24512000 0,15721000 6419000,19052000 7300000,24512000 882000,5461000 -2378000,4041000 -1878000,7441000 500000,3400000 10969000,10860000 9688000,16809000 -1281000,5949000 -5610000,7598000 -15110000,7598000z"/>
   <path class="fil4 str2" d="M170000000 124814000c-6075000,0 -11000000,-4925000 -11000000,-11000000 0,-1765000 416000,-3432000 1155000,-4911000l-2000 3000c-2853000,-866000 -5253000,2134000 -6496000,-759000 -1244000,-2894000 2443000,-7407000 9293000,-2777000l-2000 2000c713000,-596000 1502000,-1103000 2351000,-1505000l-2000 0c-1097000,-4027000 -5497000,-1427000 -6897000,-4327000 -969000,-2008000 -200000,-5100000 2600000,-5100000 3900000,0 5300000,3800000 6300000,2400000 3166000,-4433000 -1682000,-11740000 -1600000,-13800000 82000,-2059000 777000,-3901000 4300000,-3901000 3523000,0 4218000,1842000 4300000,3901000 82000,2060000 -4766000,9367000 -1600000,13800000 1000000,1400000 2400000,-2400000 6300000,-2400000 2800000,0 3569000,3092000 2600000,5100000 -1400000,2900000 -5800000,300000 -6897000,4327000l-3000 0c850000,402000 1640000,910000 2353000,1507000l-3000 -4000c6850000,-4630000 10537000,-117000 9293000,2777000 -1243000,2893000 -3643000,-107000 -6496000,759000l-1000 -2000c738000,1478000 1154000,3145000 1154000,4910000 0,6075000 -4925000,11000000 -11000000,11000000z"/>
   <circle class="fil4 str2" cx="170000000" cy="113814000" r="7026000"/>
   <path class="fil4 str2" d="M142700000 169940000c-2550000,-4150000 -3335000,-7821000 -2350000,-12850000 985000,-5029000 5400000,-8500000 7950000,-15750000 7400000,11861000 547000,18332000 -5600000,28600000z"/>
   <path class="fil4 str2" d="M170000000 174209000c-2900000,-1769000 -5406000,-4669000 -5606000,-12469000 -200000,-7800000 4006000,-13600000 5606000,-21481000 1600000,7881000 5806000,13681000 5606000,21481000 -200000,7800000 -2706000,10700000 -5606000,12469000z"/>
   <path class="fil4 str2" d="M197300000 169940000c2550000,-4150000 3335000,-7821000 2350000,-12850000 -985000,-5029000 -5400000,-8500000 -7950000,-15750000 -7400000,11861000 -547000,18332000 5600000,28600000z"/>
  </g>
 </g>
</svg>
